<svg xmlns="http://www.w3.org/2000/svg" width="23.622" height="34.625" viewBox="0 0 23.622 34.625">
  <g id="Слой_x0020_1" transform="translate(0.069)">
    <path id="Контур_3" data-name="Контур 3" d="M11.715,34.625c1.266-.991,8.147-12.991,9.3-15.248a22.769,22.769,0,0,0,2.477-6.991,9.35,9.35,0,0,0-.771-4.9A12.366,12.366,0,0,0,18.43,2.092,11.413,11.413,0,0,0,11.715,0h0A11.248,11.248,0,0,0,5.054,2.092,12.9,12.9,0,0,0,.705,7.486a9.863,9.863,0,0,0-.716,4.9,21.411,21.411,0,0,0,2.477,6.991C3.623,21.634,10.5,33.634,11.715,34.625Zm0-27.579a4.707,4.707,0,1,1-4.679,4.679A4.687,4.687,0,0,1,11.715,7.046Z" transform="translate(0 0)" fill="#fff" fill-rule="evenodd"/>
  </g>
</svg>
