<svg xmlns="http://www.w3.org/2000/svg" width="30.725" height="30.724" viewBox="0 0 30.725 30.724">
  <path id="Контур_4" data-name="Контур 4" d="M9728.186,8970h-11.612a9.558,9.558,0,0,0-9.573,9.539v11.611a9.559,9.559,0,0,0,9.573,9.573h11.612a9.559,9.559,0,0,0,9.539-9.573v-11.611a9.558,9.558,0,0,0-9.539-9.539Zm3.49,7.223a1.18,1.18,0,0,0-1.174-1.14,1.158,1.158,0,1,0,0,2.315A1.188,1.188,0,0,0,9731.676,8977.223Zm-9.3.52a7.668,7.668,0,1,0,5.357,2.245A7.6,7.6,0,0,0,9722.379,8977.742Zm0,12.579a4.977,4.977,0,1,1,3.491-8.468,4.834,4.834,0,0,1,1.486,3.49,5.017,5.017,0,0,1-4.978,4.978Zm12.719.829a6.962,6.962,0,0,1-6.912,6.947h-11.612a6.962,6.962,0,0,1-6.946-6.947v-11.611a6.964,6.964,0,0,1,6.946-6.913h11.612a6.964,6.964,0,0,1,6.912,6.913Z" transform="translate(-9707 -8970)" fill="#fefefe" fill-rule="evenodd"/>
</svg>
