<svg width="16" height="12" viewBox="0 0 16 12" fill="none" xmlns="http://www.w3.org/2000/svg">
<path fill-rule="evenodd" clip-rule="evenodd" d="M14.3619 0.448242H2.0184C1.29352 0.448242 0.702148 1.03027 0.702148 1.74509V10.3908C0.702148 11.1032 1.29089 11.6876 2.0184 11.6876H14.3619C15.085 11.6876 15.6781 11.1076 15.6781 10.3908V1.74509C15.6781 1.03269 15.0894 0.448242 14.3619 0.448242ZM14.1801 1.31281L8.21805 7.18706L2.2044 1.31281H14.1801ZM1.57965 1.92V10.2118L5.80566 6.04802L1.57965 1.92ZM2.20013 10.8231L6.4288 6.65671L7.91052 8.10405C8.08204 8.27161 8.35883 8.27106 8.52965 8.10273L9.9744 6.67927L14.1802 10.8231H2.20013ZM10.5949 6.06794L14.8006 10.2117V1.92412L10.5949 6.06794Z" fill="#E5B093"/>
</svg>
