<svg width="17" height="17" viewBox="0 0 17 17" fill="none" xmlns="http://www.w3.org/2000/svg">
<path fill-rule="evenodd" clip-rule="evenodd" d="M13.5561 10.247L16.3128 12.9289C16.8828 13.4834 16.8828 14.3857 16.3129 14.9402L15.6236 15.6107C14.4916 16.712 12.1127 16.6414 10.5297 16.344C9.08961 16.0735 6.31433 15.27 3.90787 12.9288C1.49654 10.583 0.632908 7.86092 0.332714 6.44713C-0.138309 4.2288 0.124775 2.31011 1.01931 1.43988L1.70841 0.769417C2.27835 0.214914 3.20587 0.21485 3.77591 0.769417L6.53254 3.45126C7.10258 4.00583 7.10258 4.90812 6.53254 5.46265L5.84337 6.13311C5.27334 6.68768 5.27334 7.58993 5.84337 8.1445L8.72969 10.9153C9.30194 11.472 10.2294 11.4721 10.7995 10.9175L11.4887 10.247C12.0601 9.6911 12.9848 9.6912 13.5561 10.247ZM3.08684 1.43988C2.89678 1.255 2.58768 1.25503 2.39764 1.43988L2.05475 1.77347L5.50064 5.12578L5.8435 4.79222C6.03354 4.60734 6.03354 4.3066 5.8435 4.12173L3.08684 1.43988ZM10.7146 15.4131C9.38393 15.1631 6.8198 14.4208 4.59704 12.2584C2.36525 10.0871 1.56537 7.56531 1.28721 6.25533C0.918739 4.52012 1.07215 3.21577 1.42993 2.50649L4.84576 5.82965C4.21889 6.74977 4.3219 8.00521 5.15655 8.81717L8.04287 11.588C8.87511 12.3976 10.1648 12.4985 11.1114 11.8881L14.53 15.214C13.4883 15.7279 11.8682 15.6298 10.7146 15.4131ZM15.2808 14.6034L15.6237 14.2698C15.8136 14.085 15.8136 13.7842 15.6236 13.5994L12.867 10.9175C12.6765 10.7322 12.3682 10.7322 12.1778 10.9175L11.8349 11.2511L15.2808 14.6034ZM10.3264 0.3539C10.0903 0.3539 9.89891 0.536151 9.89891 0.760966C9.89891 0.985781 10.0903 1.16803 10.3264 1.16803C13.3911 1.16803 15.8844 3.542 15.8844 6.45998C15.8844 6.6848 16.0758 6.86705 16.3119 6.86705C16.548 6.86705 16.7394 6.6848 16.7394 6.45998C16.7394 3.09308 13.8626 0.3539 10.3264 0.3539ZM9.89891 2.86298C9.89891 2.66059 10.0735 2.49651 10.2889 2.49651C12.6546 2.49651 14.5793 4.3049 14.5793 6.5277C14.5793 6.73009 14.4047 6.89416 14.1892 6.89416C13.9738 6.89416 13.7992 6.73009 13.7992 6.5277C13.7992 4.70905 12.2245 3.22945 10.2889 3.22945C10.0735 3.22945 9.89891 3.06537 9.89891 2.86298ZM10.2139 4.63913C10.04 4.63913 9.89891 4.76825 9.89891 4.92752C9.89891 5.0868 10.04 5.21592 10.2139 5.21592C11.0825 5.21592 11.7891 5.86279 11.7891 6.65791C11.7891 6.81719 11.9301 6.94631 12.1041 6.94631C12.2781 6.94631 12.4191 6.81719 12.4191 6.65791C12.4192 5.54476 11.4299 4.63913 10.2139 4.63913ZM9.89891 6.85826C9.89891 6.816 9.93922 6.78174 9.98894 6.78174C10.1379 6.78174 10.259 6.88472 10.259 7.0113C10.259 7.05356 10.2187 7.08782 10.169 7.08782C10.1193 7.08782 10.079 7.05356 10.079 7.0113C10.079 6.96911 10.0386 6.93478 9.98894 6.93478C9.93922 6.93478 9.89891 6.90052 9.89891 6.85826Z" fill="#E5B093"/>
</svg>
