<svg width="20" height="20" viewBox="0 0 20 20" fill="none" xmlns="http://www.w3.org/2000/svg">
<g clip-path="url(#clip0_1_378)">
<path d="M16.2917 12.1333C16.2794 12.235 16.2301 12.3285 16.1532 12.3962C16.0764 12.4637 15.9773 12.5007 15.875 12.5H14.1667C14.0562 12.5 13.9502 12.5439 13.872 12.622C13.7939 12.7002 13.75 12.8062 13.75 12.9167V19.5833C13.75 19.6938 13.7939 19.7998 13.872 19.878C13.9502 19.9561 14.0562 20 14.1667 20H19.1667C19.3877 20 19.5997 19.9122 19.7559 19.7559C19.9122 19.5997 20 19.3877 20 19.1667V0.833333C20 0.61232 19.9122 0.400358 19.7559 0.244077C19.5997 0.0877975 19.3877 0 19.1667 0H0.833333C0.61232 0 0.400358 0.0877975 0.244077 0.244077C0.0877975 0.400358 0 0.61232 0 0.833333V19.1667C0 19.3877 0.0877975 19.5997 0.244077 19.7559C0.400358 19.9122 0.61232 20 0.833333 20H10C10.1105 20 10.2165 19.9561 10.2947 19.878C10.3727 19.7998 10.4167 19.6938 10.4167 19.5833V12.9167C10.4167 12.8062 10.3727 12.7002 10.2947 12.622C10.2165 12.5439 10.1105 12.5 10 12.5H8.33333C8.22283 12.5 8.11684 12.4561 8.03871 12.378C7.96057 12.2998 7.91667 12.1938 7.91667 12.0833V9.58333C7.91667 9.47283 7.96057 9.36683 8.03871 9.28867C8.11684 9.21058 8.22283 9.16667 8.33333 9.16667H10C10.1105 9.16667 10.2165 9.12275 10.2947 9.04467C10.3727 8.9665 10.4167 8.8605 10.4167 8.75V7.65833C10.4167 6.40077 10.9163 5.1947 11.8055 4.30547C12.6947 3.41623 13.9008 2.91667 15.1583 2.91667H16.25C16.3605 2.91667 16.4665 2.96057 16.5447 3.03871C16.6227 3.11684 16.6667 3.22282 16.6667 3.33333V5.83333C16.6667 5.94384 16.6227 6.04982 16.5447 6.12796C16.4665 6.2061 16.3605 6.25 16.25 6.25H15.1583C14.7848 6.25 14.4266 6.39837 14.1625 6.66249C13.8984 6.92661 13.75 7.28482 13.75 7.65833V8.75C13.75 8.8605 13.7939 8.9665 13.872 9.04467C13.9502 9.12275 14.0562 9.16667 14.1667 9.16667H16.1917C16.2508 9.16625 16.3095 9.17842 16.3636 9.20242C16.4177 9.22642 16.4661 9.26167 16.5055 9.30583C16.5449 9.35 16.5745 9.402 16.5922 9.4585C16.6099 9.515 16.6154 9.57458 16.6083 9.63333L16.2917 12.1333Z" fill="white"/>
</g>
<defs>
<clipPath id="clip0_1_378">
<rect width="20" height="20" fill="white"/>
</clipPath>
</defs>
</svg>
