<svg width="141" height="26" viewBox="0 0 141 26" fill="none" xmlns="http://www.w3.org/2000/svg">
<path d="M46.502 7.78234C45.2989 7.78234 44.3479 8.09513 43.6491 8.72072C42.9503 9.3463 42.5359 10.4233 42.4057 11.9518C42.9744 11.9673 43.6029 11.9795 44.2913 11.9884C44.9798 11.9973 45.6623 12.0014 46.3389 12.0006C47.0133 12.0006 47.6714 11.9965 48.3133 11.9884C48.9551 11.9803 49.512 11.9681 49.9837 11.9518C49.9837 11.8409 49.9837 11.7155 49.9959 11.5858C50.0081 11.456 50.0081 11.3173 50.0081 11.1709C50.0081 10.0662 49.7316 9.2254 49.1785 8.64862C48.6253 8.07184 47.7332 7.78308 46.502 7.78234ZM53.0839 15.4868C53.1055 16.1857 53.0232 16.884 52.8399 17.5588C52.6667 18.1832 52.3252 18.748 51.8527 19.1915C51.3736 19.647 50.708 20.0005 49.8562 20.2519C49.0043 20.5033 47.9114 20.6294 46.5774 20.6302C44.3013 20.6302 42.497 20.0016 41.1645 18.7445C39.832 17.4874 39.1665 15.5648 39.168 12.9767C39.168 11.6597 39.3469 10.5135 39.7048 9.53819C40.0166 8.63484 40.5289 7.81383 41.2033 7.13678C41.8699 6.49666 42.6738 6.01714 43.5537 5.73476C44.5463 5.41586 45.5838 5.2593 46.6262 5.27111C48.9991 5.27111 50.6689 5.83607 51.6353 6.96597C52.6018 8.09587 53.0854 9.5785 53.0862 11.4138C53.0862 11.9019 53.078 12.3489 53.0618 12.7549C53.0451 13.1608 53.0285 13.5191 53.013 13.8275C52.4118 13.8119 51.6072 13.8038 50.5993 13.8031H44.6385C43.7859 13.8031 43.0343 13.7949 42.3835 13.7787C42.4486 15.3397 42.8387 16.4529 43.5537 17.1184C44.2688 17.784 45.2848 18.1167 46.6018 18.1167C47.918 18.1167 48.8117 17.8771 49.2827 17.398C49.7538 16.9188 49.9978 16.281 50.0148 15.4846C50.2255 15.5001 50.4611 15.5164 50.7214 15.5334C50.9809 15.5489 51.266 15.5578 51.5743 15.5578C51.8827 15.5578 52.16 15.5489 52.404 15.5334L53.0862 15.4846" fill="black"/>
<path d="M69.0686 14.5595V14.828C69.0748 15.6009 68.9599 16.37 68.7281 17.1074C68.5033 17.8089 68.105 18.4422 67.5701 18.9486C67.0243 19.4662 66.2967 19.8767 65.3872 20.1798C64.4776 20.483 63.3562 20.6331 62.023 20.6302C59.7151 20.6302 57.8908 19.9761 56.5502 18.668C55.2095 17.3599 54.5392 15.4373 54.5392 12.9002C54.5392 10.383 55.2136 8.48261 56.5624 7.1989C57.9112 5.91519 59.7709 5.2726 62.1417 5.27112C64.3061 5.27112 65.9854 5.72885 67.1796 6.6443C68.3739 7.55976 68.971 9.01059 68.971 10.9968C68.9709 11.0576 68.975 11.1184 68.9832 11.1787C68.9916 11.2399 68.9875 11.3022 68.971 11.3617C68.7758 11.3462 68.5362 11.334 68.2522 11.3251C67.9683 11.3162 67.6725 11.3122 67.3649 11.3129C67.0691 11.3129 66.7884 11.317 66.523 11.3251C66.2557 11.334 66.0316 11.3462 65.8575 11.3617V11.1177C65.8412 10.1431 65.5528 9.41582 64.9923 8.9359C64.4318 8.45599 63.4745 8.21788 62.1206 8.22158C60.7393 8.22158 59.6748 8.57505 58.9272 9.28197C58.1796 9.9889 57.8058 11.1876 57.8058 12.878C57.8058 14.6172 58.1755 15.8525 58.915 16.5838C59.6545 17.3151 60.73 17.6808 62.1417 17.6808C63.4727 17.6808 64.4236 17.4165 64.9945 16.8877C65.5654 16.359 65.8578 15.6643 65.8719 14.8036V14.5595C66.0826 14.5762 66.3233 14.5884 66.5906 14.5961C66.858 14.6039 67.1308 14.6083 67.4081 14.6083C67.7165 14.6083 68.0171 14.6083 68.3099 14.5961C68.6027 14.5839 68.8545 14.5762 69.0653 14.5595" fill="black"/>
<path d="M85.081 20.3129H81.5703C81.5859 19.1919 81.6021 17.9163 81.6192 16.4862C81.6362 15.0561 81.6443 13.4145 81.6436 11.5614C81.6436 10.4078 81.3873 9.5626 80.8749 9.02575C80.3624 8.4889 79.5294 8.22084 78.3759 8.22158C77.24 8.22158 76.2654 8.54621 75.452 9.19546C74.6386 9.84471 74.2319 10.8933 74.2319 12.3411V15.4469C74.2319 16.2995 74.236 17.0227 74.2441 17.6165C74.2522 18.2103 74.2604 18.7179 74.2685 19.1394C74.2763 19.5631 74.2807 19.9524 74.2807 20.3096H70.7701C70.8019 19.1886 70.8222 18.0424 70.8311 16.8711C70.84 15.6998 70.844 14.2135 70.8433 12.4121V9.33078C70.8433 8.29923 70.8392 7.31574 70.8311 6.38032C70.823 5.44489 70.8148 4.55532 70.8067 3.71159C70.7978 2.86638 70.7856 2.11065 70.7701 1.44439H74.3295C74.2962 2.24079 74.28 2.97619 74.2807 3.65058C74.2814 4.32497 74.2733 5.0197 74.2563 5.73476C74.2563 6.17401 74.2522 6.58071 74.2441 6.95488C74.236 7.32905 74.2238 7.73575 74.2075 8.175L74.3295 8.1994C74.7466 7.26411 75.4743 6.50188 76.3893 6.04201C77.3077 5.57837 78.4413 5.34654 79.7901 5.34654C81.4317 5.34654 82.7198 5.78135 83.6545 6.65096C84.5892 7.52057 85.0566 8.83312 85.0566 10.5886C85.0566 11.6978 85.0484 12.5852 85.0321 13.2507C85.0159 13.9162 85.0077 14.615 85.0077 15.3471C85.0077 16.2411 85.0159 17.094 85.0321 17.906C85.0484 18.7179 85.0647 19.5224 85.081 20.3196" fill="black"/>
<path d="M90.689 20.3129H87.2272C87.2428 19.1298 87.255 17.9396 87.2638 16.7424C87.2727 15.5452 87.2768 14.2002 87.276 12.7072C87.276 11.2933 87.272 10.0362 87.2638 8.9359C87.2557 7.83558 87.2435 6.72638 87.2272 5.60831H90.689C90.6558 6.74635 90.6354 7.85961 90.628 8.9481C90.6206 10.0366 90.6166 11.3207 90.6158 12.8003C90.6158 14.4087 90.6199 15.7697 90.628 16.8833C90.6362 17.9969 90.6565 19.1387 90.689 20.3085M91.1516 2.95068C91.1521 3.11862 91.1152 3.28457 91.0436 3.43651C90.9721 3.58845 90.8676 3.72257 90.7379 3.82916C90.4606 4.0754 89.876 4.20037 88.9842 4.20407C88.0577 4.20407 87.4605 4.08243 87.1929 3.83914C87.0659 3.73083 86.964 3.59611 86.8945 3.44438C86.825 3.29265 86.7894 3.12757 86.7902 2.96066C86.7862 2.79267 86.8229 2.6262 86.8973 2.47552C86.9716 2.32483 87.0814 2.19443 87.2173 2.09548C87.5012 1.87365 88.0902 1.76273 88.9842 1.76273C89.8627 1.76273 90.4439 1.87365 90.7279 2.09548C90.8633 2.19468 90.9728 2.32516 91.047 2.47581C91.1212 2.62645 91.1578 2.7928 91.1538 2.96066" fill="black"/>
<path d="M104.101 12.8558C104.101 11.246 103.7 10.0717 102.896 9.33299C102.092 8.59427 101.057 8.22454 99.79 8.2238C98.5226 8.2238 97.4906 8.58946 96.6942 9.32079C95.8978 10.0521 95.4985 11.2305 95.4963 12.8558C95.4963 14.4826 95.8945 15.7027 96.6909 16.5162C97.4873 17.3296 98.5192 17.7363 99.7867 17.7363C101.087 17.7363 102.131 17.3259 102.919 16.5051C103.707 15.6843 104.101 14.4678 104.101 12.8558ZM107.418 12.7582C107.434 13.8832 107.248 15.002 106.869 16.0614C106.538 16.9894 106.014 17.8368 105.333 18.5482C104.656 19.2363 103.836 19.7665 102.931 20.1011C101.924 20.4694 100.859 20.6509 99.7867 20.6368C98.7185 20.6517 97.6568 20.4702 96.6543 20.1011C95.7566 19.7662 94.9446 19.2358 94.2773 18.5482C93.6033 17.8354 93.088 16.9878 92.7655 16.0614C92.3953 15.0001 92.214 13.8821 92.2297 12.7582C92.2297 11.524 92.4164 10.4392 92.7899 9.50381C93.1308 8.61797 93.6638 7.81867 94.3505 7.16341C95.0363 6.5261 95.8511 6.04378 96.7397 5.74918C97.722 5.42304 98.7517 5.26224 99.7867 5.27333C100.827 5.26203 101.861 5.42204 102.849 5.74696C103.745 6.0416 104.567 6.52372 105.262 7.16119C105.954 7.81555 106.494 8.61469 106.842 9.50159C107.224 10.437 107.415 11.5218 107.416 12.756" fill="black"/>
<path d="M8.81367 12.6584C8.81367 10.8097 9.09393 9.18288 9.65444 7.7779C9.97469 6.96362 10.3982 6.19382 10.9145 5.48741C10.212 5.33718 9.49543 5.2628 8.77707 5.26557C7.74208 5.25439 6.71241 5.41519 5.73011 5.74141C4.84149 6.03601 4.02665 6.51833 3.3409 7.15564C2.65418 7.81091 2.12119 8.6102 1.78026 9.49604C1.40609 10.4315 1.21937 11.5163 1.22011 12.7504C1.20435 13.8743 1.38567 14.9923 1.75585 16.0536C2.07841 16.9801 2.59368 17.8276 3.26769 18.5404C3.93499 19.228 4.74695 19.7585 5.6447 20.0933C6.64716 20.4624 7.70894 20.644 8.77707 20.6291C9.54797 20.6342 10.3166 20.544 11.0653 20.3606C10.4556 19.5166 9.97005 18.5895 9.62339 17.6076C9.08654 16.1346 8.81848 14.4845 8.81922 12.6573" fill="black"/>
<path d="M30.7137 7.78234C30.1894 6.45293 29.3786 5.25543 28.3389 4.27506C27.2979 3.31973 26.0652 2.59747 24.7229 2.15649C23.2441 1.66947 21.6954 1.4289 20.1386 1.44438C18.5875 1.42762 17.0444 1.66825 15.572 2.15649C14.2403 2.59755 13.0192 3.32011 11.9915 4.27506C11.5962 4.64824 11.2357 5.05663 10.9145 5.49517C11.2266 5.56307 11.5347 5.64824 11.8374 5.75029C12.7329 6.04493 13.5553 6.52704 14.2499 7.16451C14.9441 7.81843 15.4853 8.6176 15.8349 9.50492C16.2165 10.4403 16.4076 11.5251 16.4083 12.7593C16.4243 13.8843 16.2383 15.0031 15.8593 16.0625C15.5283 16.9905 15.0047 17.8379 14.3231 18.5493C13.6467 19.2374 12.8267 19.7676 11.9216 20.1022C11.6415 20.2074 11.3556 20.2966 11.0653 20.3695C11.3154 20.7119 11.5886 21.0369 11.8828 21.3423C12.8834 22.368 14.1002 23.1577 15.4445 23.6538C16.8443 24.1899 18.409 24.458 20.1386 24.458C21.8682 24.458 23.4388 24.1899 24.8504 23.6538C26.2061 23.1553 27.4348 22.3633 28.4487 21.3345C29.4699 20.2685 30.2546 18.9989 30.7514 17.6087C31.2993 16.1357 31.5733 14.4856 31.5733 12.6584C31.5733 10.8097 31.2871 9.18288 30.7148 7.7779" fill="black"/>
<path d="M113.121 3.17141H115.657C116.975 3.17141 117.793 3.83027 117.793 4.96831C117.787 5.26011 117.697 5.5439 117.534 5.78622C117.371 6.02853 117.143 6.21927 116.875 6.33595C117.584 6.58552 118.103 7.14455 118.103 8.12287C118.103 9.38069 117.244 10.1594 115.807 10.1594H113.121V3.17141ZM115.617 6.04645C116.446 6.04645 116.895 5.69705 116.895 4.99826C116.895 4.29946 116.451 3.95007 115.617 3.95007H114.03V6.04645H115.617ZM115.657 9.34076C116.675 9.34076 117.194 8.9115 117.194 8.1029C117.194 7.29429 116.675 6.84507 115.657 6.84507H114.03V9.34076H115.657Z" fill="black"/>
<path d="M119.241 3.17141H123.643V3.98223H120.153V6.03647H122.988V6.85505H120.153V9.34076H123.756V10.1594H119.241V3.17141Z" fill="black"/>
<path d="M126.578 3.98223H124.352V3.17141H129.703V3.98223H127.484V10.1594H126.576L126.578 3.98223Z" fill="black"/>
<path d="M133.766 8.38242H130.66L129.971 10.1571H129.033L131.799 3.17141H132.628L135.401 10.1594H134.452L133.766 8.38242ZM133.456 7.57381L132.218 4.36934L130.971 7.57381H133.456Z" fill="black"/>
</svg>
