<svg width="20" height="20" viewBox="0 0 20 20" fill="none" xmlns="http://www.w3.org/2000/svg">
<path d="M19.4333 5.36666C19.4927 5.31737 19.5371 5.2526 19.5617 5.17955C19.5864 5.1065 19.5903 5.02803 19.5731 4.95288C19.5558 4.87774 19.518 4.80886 19.4639 4.75391C19.4098 4.69896 19.3416 4.66011 19.2667 4.64166L18.6083 4.475C18.5485 4.46001 18.4927 4.43191 18.445 4.39274C18.3973 4.35356 18.359 4.3043 18.3327 4.24848C18.3063 4.19266 18.2927 4.1317 18.2928 4.06999C18.293 4.00828 18.3068 3.94737 18.3333 3.89166L18.7 3.15C18.7347 3.07813 18.7479 2.99782 18.7382 2.91863C18.7286 2.83944 18.6964 2.76468 18.6455 2.70325C18.5946 2.64182 18.5272 2.59629 18.4511 2.57208C18.3751 2.54786 18.2937 2.54599 18.2167 2.56666L16.55 3.03333C16.4879 3.05144 16.4224 3.05485 16.3588 3.04327C16.2952 3.03171 16.2351 3.00547 16.1833 2.96666C15.4621 2.42574 14.5849 2.13333 13.6833 2.13333C12.5782 2.13333 11.5185 2.57231 10.7371 3.35371C9.95565 4.13512 9.51665 5.19493 9.51665 6.3V6.6C9.51707 6.65118 9.49857 6.70071 9.46474 6.73913C9.4309 6.77756 9.38415 6.80219 9.33332 6.80833C6.99166 7.08333 4.74999 5.89166 2.33333 3.10833C2.28083 3.05043 2.21338 3.00813 2.1384 2.98607C2.06342 2.96402 1.98381 2.96307 1.90833 2.98333C1.84033 3.01459 1.78199 3.06358 1.73947 3.12517C1.69694 3.18676 1.67179 3.25866 1.66666 3.33333C1.33288 4.70445 1.46783 6.14785 2.04999 7.43333C2.06722 7.46742 2.07473 7.5056 2.07173 7.54368C2.06872 7.58176 2.0553 7.61828 2.03293 7.64925C2.01057 7.68021 1.98012 7.70444 1.94492 7.71926C1.90971 7.7341 1.87111 7.73896 1.83333 7.73333L0.899993 7.55C0.83371 7.53934 0.765836 7.54486 0.702145 7.56607C0.638455 7.5873 0.580834 7.62359 0.534189 7.67187C0.487545 7.72016 0.453256 7.77899 0.434244 7.84338C0.415231 7.90776 0.412058 7.97579 0.424993 8.04166C0.496942 8.68116 0.711805 9.29633 1.05368 9.84166C1.39555 10.3869 1.85568 10.8483 2.39999 11.1917C2.43522 11.2087 2.46492 11.2353 2.48571 11.2685C2.50649 11.3017 2.51752 11.34 2.51752 11.3792C2.51752 11.4183 2.50649 11.4567 2.48571 11.4898C2.46492 11.523 2.43522 11.5496 2.39999 11.5667L1.95833 11.7417C1.90469 11.7632 1.85611 11.7956 1.81568 11.8369C1.77525 11.8782 1.74384 11.9274 1.72347 11.9815C1.70309 12.0356 1.69418 12.0932 1.69732 12.151C1.70045 12.2087 1.71555 12.2651 1.74166 12.3167C1.9859 12.8511 2.35613 13.3183 2.82058 13.6782C3.28503 14.0382 3.82985 14.2802 4.40833 14.3833C4.44854 14.3979 4.48329 14.4246 4.50785 14.4596C4.53241 14.4947 4.54558 14.5364 4.54558 14.5792C4.54558 14.6219 4.53241 14.6637 4.50785 14.6987C4.48329 14.7337 4.44854 14.7604 4.40833 14.775C3.27529 15.2436 2.05938 15.4788 0.833326 15.4667C0.72282 15.4446 0.608059 15.4672 0.51429 15.5297C0.420523 15.5922 0.355428 15.6895 0.333326 15.8C0.311225 15.9105 0.333928 16.0252 0.39644 16.119C0.458952 16.2128 0.556153 16.2779 0.66666 16.3C2.78961 17.3068 5.10098 17.8549 7.44999 17.9083C9.51623 17.9398 11.5457 17.36 13.2833 16.2417C14.7127 15.2875 15.8837 13.9946 16.6922 12.4781C17.5006 10.9615 17.9212 9.2685 17.9167 7.55V6.825C17.9172 6.76449 17.9308 6.70481 17.9567 6.65013C17.9827 6.59544 18.0202 6.54706 18.0667 6.50833L19.4333 5.36666Z" fill="white"/>
</svg>
