<svg width="22" height="24" viewBox="0 0 22 24" fill="none" xmlns="http://www.w3.org/2000/svg">
<path d="M20.7137 6.78234C20.1894 5.45293 19.3786 4.25543 18.3389 3.27506C17.2979 2.31973 16.0652 1.59747 14.7229 1.15649C13.2441 0.669472 11.6954 0.428895 10.1386 0.444385C8.58749 0.42762 7.04436 0.668254 5.57201 1.15649C4.24031 1.59755 3.01916 2.32011 1.99153 3.27506C1.59624 3.64824 1.23575 4.05663 0.914497 4.49517C1.2266 4.56307 1.53469 4.64824 1.83735 4.75029C2.73287 5.04493 3.5553 5.52704 4.24985 6.16451C4.94407 6.81843 5.48531 7.6176 5.83489 8.50492C6.21646 9.44034 6.40761 10.5251 6.40835 11.7593C6.4243 12.8843 6.23834 14.0031 5.8593 15.0625C5.52825 15.9905 5.00473 16.8379 4.32306 17.5493C3.64665 18.2374 2.82666 18.7676 1.92165 19.1022C1.64149 19.2074 1.3556 19.2966 1.06535 19.3695C1.31544 19.7119 1.58857 20.0369 1.88283 20.3423C2.88344 21.368 4.10017 22.1577 5.44446 22.6538C6.84426 23.1899 8.40897 23.458 10.1386 23.458C11.8682 23.458 13.4388 23.1899 14.8504 22.6538C16.2061 22.1553 17.4348 21.3633 18.4487 20.3345C19.4699 19.2685 20.2546 17.9989 20.7514 16.6087C21.2993 15.1357 21.5733 13.4856 21.5733 11.6584C21.5733 9.8097 21.2871 8.18288 20.7148 6.7779" fill="black"/>
</svg>
