<svg width="11" height="16" viewBox="0 0 11 16" fill="none" xmlns="http://www.w3.org/2000/svg">
<path d="M7.81367 7.65836C7.81367 5.8097 8.09393 4.18288 8.65444 2.7779C8.97469 1.96362 9.39817 1.19382 9.91449 0.487407C9.21201 0.337177 8.49543 0.262804 7.77707 0.265568C6.74208 0.254387 5.71241 0.41519 4.73011 0.741413C3.84149 1.03601 3.02665 1.51833 2.3409 2.15564C1.65418 2.81091 1.12119 3.6102 0.780257 4.49604C0.406088 5.43147 0.219374 6.51626 0.220114 7.75043C0.20435 8.87433 0.385672 9.99231 0.755854 11.0536C1.07841 11.9801 1.59368 12.8276 2.26769 13.5404C2.93499 14.228 3.74695 14.7585 4.6447 15.0933C5.64716 15.4624 6.70894 15.644 7.77707 15.6291C8.54797 15.6342 9.31655 15.544 10.0653 15.3606C9.45564 14.5166 8.97005 13.5895 8.62339 12.6076C8.08654 11.1346 7.81848 9.48447 7.81922 7.65726" fill="black"/>
</svg>
