<svg xmlns="http://www.w3.org/2000/svg" width="127.296" height="9.295" viewBox="0 0 127.296 9.295">
  <path id="Контур_1" data-name="Контур 1" d="M9.958-9.3,8.008-2.132,5.863-9.3h-.78L3.016-2.132,1-9.3H0L2.626,0h.78l2.08-7.2L7.644,0h.78l2.522-9.3ZM15.886,0h6.123V-.975H16.861V-4.16h3.757v-.975H16.861V-8.32h5.148V-9.3H15.886ZM32.11-4.81a2.586,2.586,0,0,0,.858-1.924A2.566,2.566,0,0,0,30.407-9.3H26.975V-.377L26.949,0h3.926a2.566,2.566,0,0,0,2.561-2.561A2.576,2.576,0,0,0,32.11-4.81ZM30.875-.975H27.937V-4.16h2.938a1.6,1.6,0,0,1,1.586,1.6A1.592,1.592,0,0,1,30.875-.975Zm-.468-4.16h-2.47V-8.32h2.47a1.6,1.6,0,0,1,1.6,1.586A1.6,1.6,0,0,1,30.407-5.135ZM38.909,0a.535.535,0,0,0,.533-.533.544.544,0,0,0-.533-.533.535.535,0,0,0-.533.533A.527.527,0,0,0,38.909,0Zm20.67-3.653V-3.6A2.686,2.686,0,0,1,56.888-.962,2.68,2.68,0,0,1,54.2-3.614V-9.3h-.975v6.006h.013A3.678,3.678,0,0,0,56.888,0a3.656,3.656,0,0,0,3.653-3.653V-9.3h-.962ZM69.628-8.32V-9.3H65.481v.975h1.586V-.962H65.481V0h4.147V-.962H68.042V-8.32ZM75.1,0a.535.535,0,0,0,.533-.533.544.544,0,0,0-.533-.533.535.535,0,0,0-.533.533A.527.527,0,0,0,75.1,0ZM92.378-9.3H89.414V0h2.964a4.647,4.647,0,0,0,4.641-4.654A4.644,4.644,0,0,0,92.378-9.3Zm0,8.333H90.389V-8.333h1.989a3.684,3.684,0,0,1,3.679,3.679A3.687,3.687,0,0,1,92.378-.962ZM101.959,0h6.123V-.975h-5.148V-4.16h3.757v-.975h-3.757V-8.32h5.148V-9.3h-6.123Zm15.223-1.651L114.049-9.3h-1.027l3.8,9.3h.728l3.744-9.3h-1.027ZM126.763,0a.535.535,0,0,0,.533-.533.544.544,0,0,0-.533-.533.535.535,0,0,0-.533.533A.527.527,0,0,0,126.763,0Z" transform="translate(0 9.295)" fill="#fff"/>
</svg>
