<svg xmlns="http://www.w3.org/2000/svg" width="300.01" height="25.802" viewBox="0 0 300.01 25.802"><path d="M19,0H2.28V-25.346H8.816V-5.7H19ZM56.354.456q-5.928,0-8.968-2.926a10.312,10.312,0,0,1-3.04-7.79V-25.346H51v14.858a5.138,5.138,0,0,0,1.387,3.743A5.289,5.289,0,0,0,56.354-5.32a5.237,5.237,0,0,0,3.933-1.425,5.138,5.138,0,0,0,1.387-3.743V-25.346h6.612V-10.3A10.4,10.4,0,0,1,65.265-2.47Q62.244.456,56.354.456ZM119.206,0H112.9L102.182-14.668V0H95.646V-25.346h6.726L112.632-11.4V-25.346h6.574ZM171.19,0h-7.41l-1.254-3.648h-9.994L151.278,0h-7.41l9.538-25.346h8.208ZM160.74-9.348l-3.23-9.538-3.23,9.538ZM217.474,0h-7.486l-4.256-8.512h-3.344V0h-6.536V-25.346h12.692A8.651,8.651,0,0,1,215-22.952a8.26,8.26,0,0,1,2.356,6.042,7.813,7.813,0,0,1-1.5,4.959,7.754,7.754,0,0,1-3.553,2.641Zm-9.918-14.212a3.5,3.5,0,0,0,2.242-.722,2.424,2.424,0,0,0,.912-2.014,2.384,2.384,0,0,0-.912-1.976,3.5,3.5,0,0,0-2.242-.722h-5.168v5.434ZM250.306,0H243.77V-25.346h6.536ZM302.29,0h-7.41l-1.254-3.648h-9.994L282.378,0h-7.41l9.538-25.346h8.208ZM291.84-9.348l-3.23-9.538-3.23,9.538Z" transform="translate(-2.28 25.346)" fill="#fff"/></svg>