<svg width="45" height="51" viewBox="0 0 45 51" fill="none" xmlns="http://www.w3.org/2000/svg">
<path fill-rule="evenodd" clip-rule="evenodd" d="M1.4524 35.6004L19.1378 25.3899C19.1321 25.3101 19.1292 25.2294 19.1292 25.1483L19.1336 24.9828L1.45262 14.7745V35.6004H1.4524ZM23.1123 21.9867C23.711 22.1267 24.2467 22.4324 24.6683 22.8526C24.8782 23.0631 25.0587 23.3018 25.2055 23.5617L42.5984 13.5196L23.1123 2.2692V21.9867ZM25.6184 24.9945L25.6221 25.1483C25.6221 25.2253 25.6193 25.3022 25.6142 25.3778L43.3208 35.6006V14.7748L25.6186 24.9947L25.6184 24.9945ZM25.1727 26.7945C25.0334 27.0312 24.8634 27.2481 24.6712 27.4412C24.248 27.8636 23.711 28.1706 23.1123 28.3099V48.1059L42.5984 36.8555L25.1727 26.7945ZM21.6606 28.315C21.0531 28.1779 20.5086 27.8693 20.0828 27.4441C19.8919 27.2525 19.7244 27.0376 19.5848 26.804L2.17452 36.8555L21.6606 48.1059V28.315ZM19.5507 23.5518C19.695 23.2963 19.8736 23.0626 20.0797 22.8557C20.508 22.4282 21.0529 22.119 21.6604 21.9819V2.26942L2.1743 13.5199L19.5507 23.5518ZM23.6462 23.8776C23.3217 23.5538 22.8719 23.3534 22.3755 23.3534C21.879 23.3534 21.4289 23.5544 21.1047 23.8776C20.7809 24.202 20.5805 24.6519 20.5805 25.1483C20.5805 25.6447 20.7815 26.0949 21.1047 26.4191C21.4292 26.742 21.879 26.9433 22.3755 26.9433C22.8719 26.9433 23.322 26.7429 23.6462 26.4191C23.9691 26.0946 24.1702 25.6447 24.1702 25.1483C24.1702 24.6519 23.9698 24.2018 23.6462 23.8776ZM22.7934 0.413415L44.3647 12.8681C44.6056 12.9864 44.7718 13.2331 44.7718 13.5199V36.8555V36.867V36.8742L44.771 36.8786L44.7696 36.902V36.9115L44.7688 36.9137L44.7681 36.9254V36.9298L44.7666 36.9371L44.7659 36.9481L44.7652 36.9487L44.763 36.9661L44.7617 36.9719C44.7225 37.2077 44.5724 37.4052 44.3647 37.5075L22.7934 49.9622L22.7921 49.9628L22.7877 49.9657L22.7826 49.9692L22.7775 49.9721L22.7769 49.9727L22.7718 49.9765L22.7661 49.9794L22.7625 49.9816L22.7603 49.9829L22.7546 49.9866L22.7489 49.9895L22.748 49.9902L22.7467 49.9908L22.7438 49.993L22.7381 49.9959L22.733 49.9987L22.7321 49.9996L22.7264 50.0025L22.7206 50.0054L22.7169 50.0076L22.714 50.0082L22.7083 50.0111L22.7026 50.014L22.7012 50.0146L22.6968 50.0168L22.6911 50.0197L22.6854 50.0226H22.6845L22.6788 50.0254L22.6721 50.0276L22.6693 50.0292L22.6664 50.0305L22.6607 50.0327L22.6541 50.0356L22.6534 50.0362L22.6477 50.0378L22.6419 50.04L22.6369 50.0422L22.6356 50.0428L22.6298 50.045L22.6232 50.0472L22.6203 50.0479L22.6166 50.0494L22.61 50.0517L22.6043 50.0539H22.6027L22.5976 50.0554L22.591 50.0576L22.586 50.0589H22.5844L22.5778 50.0611L22.5712 50.0625L22.5683 50.0633L22.5646 50.0647L22.558 50.0662L22.5514 50.0677H22.5507L22.545 50.0693L22.5377 50.0706L22.5326 50.0722H22.5313L22.5247 50.0737L22.5181 50.075H22.5152L22.5115 50.0759L22.5042 50.0774L22.4976 50.0781H22.4969L22.4912 50.0796L22.4839 50.0803L22.4788 50.081H22.4773L22.47 50.0819L22.4634 50.0825L22.4605 50.0832H22.4561L22.4495 50.0841L22.4422 50.0847L22.4356 50.0856H22.4284L22.4233 50.0863H22.4211H22.4145L22.4072 50.0869H22.405H22.3999H22.3933H22.386H22.3788H22.3721H22.3671H22.3649L22.3576 50.0863H22.351H22.3488L22.3437 50.0856H22.3364L22.3298 50.0847L22.3225 50.0841L22.3159 50.0832H22.3115L22.3087 50.0825L22.302 50.0819L22.2948 50.081H22.2932L22.2882 50.0803L22.2809 50.0796L22.2752 50.0781H22.2745L22.2679 50.0774L22.2606 50.0759L22.2569 50.075H22.254L22.2474 50.0737L22.2408 50.0722H22.2392L22.2342 50.0706L22.2269 50.0693L22.2212 50.0677H22.2205L22.2139 50.0662L22.2073 50.0647L22.2037 50.0633L22.2009 50.0625L22.1943 50.0611L22.1876 50.0589H22.1861L22.181 50.0576L22.1744 50.0554L22.1694 50.0539H22.1687L22.1621 50.0517L22.1555 50.0494L22.1517 50.0479L22.1489 50.0472L22.1422 50.045L22.1365 50.0428L22.135 50.0422L22.1299 50.04L22.1242 50.0378L22.1184 50.0362L22.1178 50.0356L22.1112 50.0327L22.1054 50.0305L22.1026 50.0292L22.0997 50.0276L22.0931 50.0254L22.0874 50.0226H22.0867L22.081 50.0197L22.0752 50.0168L22.0708 50.0146L22.0693 50.014L22.0635 50.0111L22.0578 50.0082L22.0549 50.0076L22.0512 50.0054L22.0455 50.0025L22.0397 49.9996L22.0391 49.9987L22.034 49.9959L22.0283 49.993L22.0254 49.9908L22.0239 49.9902L22.0232 49.9895L22.0175 49.9866L22.0117 49.9829L22.0095 49.9816L22.0058 49.9794L22.0001 49.9765L21.995 49.9727L21.9943 49.9721L21.9893 49.9692L21.9842 49.9657L21.9798 49.9628L21.9785 49.9622L0.407131 37.5075C0.166203 37.3892 0 37.1425 0 36.8557V13.5201V13.5084V13.5011L0.000661285 13.4967L0.00220428 13.4733V13.4639L0.00286557 13.4617L0.00374728 13.45V13.4456L0.00529028 13.4383L0.00595156 13.4273L0.00661285 13.4266L0.00881713 13.4092L0.0103601 13.4035C0.0495964 13.1676 0.199708 12.9703 0.407351 12.8678L21.9787 0.413194L21.98 0.412533L21.9844 0.409667L21.9895 0.40592L21.9946 0.403055L21.9952 0.402393L22.0003 0.398646L22.006 0.394899L22.0098 0.393576L22.012 0.392033L22.0177 0.388286L22.0234 0.384539H22.0241L22.0285 0.381673L22.0342 0.377926L22.0393 0.375722L22.04 0.37506L22.0457 0.372195L22.0514 0.368447L22.0552 0.367125L22.058 0.365582L22.0638 0.362716L22.0695 0.359851H22.071L22.0754 0.356985L22.0812 0.35412L22.0856 0.352577L22.0871 0.351915H22.0878L22.0935 0.34905L22.1001 0.346184L22.103 0.345523L22.1059 0.34398L22.1116 0.341114L22.1153 0.339571L22.1182 0.33869L22.1189 0.338028L22.1246 0.335824L22.1303 0.33362L22.1354 0.332077L22.1369 0.331415L22.1427 0.329211L22.1493 0.327007L22.1522 0.326125L22.1559 0.324803L22.1625 0.322598L22.1691 0.320394H22.1698L22.1749 0.31819L22.1815 0.316867L22.1865 0.315324L22.1881 0.314442L22.1947 0.31312L22.2013 0.310916H22.2042L22.2077 0.309373L22.2143 0.30783L22.2209 0.306287H22.2216L22.2273 0.304964L22.2346 0.303421L22.2397 0.301878H22.2412L22.2478 0.300555L22.2544 0.299013H22.2573L22.261 0.298131L22.2683 0.296808L22.2749 0.295927H22.2756L22.2813 0.294604L22.2886 0.293722L22.2937 0.293061H22.2952L22.3025 0.2924L22.3054 0.291518L22.312 0.290857H22.3164L22.323 0.289975L22.3303 0.289314L22.3369 0.288652H22.3442L22.3492 0.287771H22.3514H22.358L22.3653 0.287109H22.3675H22.3726H22.3792H22.3865H22.3937H22.4004H22.4054H22.4076L22.4149 0.287771H22.4215H22.4237L22.4288 0.288652H22.4361L22.4427 0.289314L22.45 0.289975L22.4566 0.290857H22.461L22.4676 0.291518L22.4705 0.2924L22.4777 0.293061H22.4793L22.4843 0.293722L22.4916 0.294604L22.4973 0.295927H22.498L22.5046 0.296808L22.5119 0.298131L22.5156 0.299013H22.5185L22.5251 0.300555L22.5317 0.301878H22.5331L22.5381 0.303421L22.5454 0.304964L22.5511 0.306287H22.5518L22.5584 0.30783L22.565 0.309373L22.5688 0.310916H22.5716L22.5782 0.31312L22.5849 0.314442L22.5864 0.315324L22.5915 0.316867L22.5981 0.31819L22.6032 0.320394H22.6047L22.6104 0.322598L22.617 0.324803L22.6208 0.326125L22.6237 0.327007L22.6303 0.329211L22.636 0.331415L22.6373 0.332077L22.6424 0.33362L22.6481 0.335824L22.6539 0.338028L22.6545 0.33869L22.6583 0.339571L22.6611 0.341114L22.6669 0.34398L22.6697 0.345523L22.6726 0.346184L22.6792 0.34905L22.6849 0.351915H22.6858L22.6871 0.352577L22.6915 0.35412L22.6973 0.356985L22.7017 0.359851H22.703L22.7087 0.362716L22.7145 0.365582L22.7173 0.367125L22.7211 0.368447L22.7268 0.372195L22.7325 0.37506L22.7334 0.375722L22.7385 0.377926L22.7442 0.381673L22.7486 0.384539H22.7495L22.7552 0.388286L22.761 0.392033L22.7632 0.393576L22.7667 0.394899L22.7724 0.398646L22.7775 0.402393L22.7782 0.403055L22.7832 0.40592L22.7883 0.409667L22.7927 0.412533L22.794 0.413194L22.7934 0.413415Z" fill="url(#paint0_linear_0_2122)"/>
<defs>
<linearGradient id="paint0_linear_0_2122" x1="48.0757" y1="20.9698" x2="16.294" y2="-6.85564" gradientUnits="userSpaceOnUse">
<stop stop-color="#C88C61"/>
<stop offset="1" stop-color="#EBBE9C"/>
</linearGradient>
</defs>
</svg>
