<svg width="107" height="48" viewBox="0 0 107 48" fill="none" xmlns="http://www.w3.org/2000/svg">
<path fill-rule="evenodd" clip-rule="evenodd" d="M15.955 24.384L25.2685 7.13933C24.8003 4.95598 23.6357 3.1349 22.0904 2.09153C21.0399 4.12514 19.9438 6.26985 18.8743 8.36626C17.3138 11.4143 15.7153 14.5444 14.1966 17.4282C13.9911 16.2495 13.7818 15.0564 13.5762 13.8778C12.9939 10.5593 12.3964 7.12484 11.7874 3.92226C11.6846 3.20253 11.5172 2.37653 11.3497 1.58434C11.3231 1.43459 11.2926 1.29451 11.266 1.1496H7.01839C6.57688 1.1496 6.1468 1.21239 5.73194 1.31383C6.1468 3.33778 6.57688 5.49699 7.04122 7.72864C8.16401 13.245 9.32486 18.9449 10.3639 23.7802C8.67022 26.9827 6.7139 30.5814 4.81848 34.0738L2.78604 37.8222C2.21513 38.8608 1.58713 40.0152 0.947708 41.189C1.46533 43.2758 2.64521 44.9954 4.17145 45.9712C4.34653 45.6379 4.52541 45.3142 4.70049 44.9761C5.26379 43.9424 5.82328 42.9038 6.35994 41.9474C7.61213 39.6095 8.91381 37.0155 10.185 34.4989C10.813 33.2575 11.4525 31.9822 12.0843 30.7456L14.9883 46.8455H19.1331C19.5632 46.8455 19.9742 46.7827 20.3815 46.6861C19.803 43.5753 18.8857 38.9429 18.0217 34.6776C17.3404 31.2335 16.6287 27.6204 15.955 24.384Z" fill="white"/>
<path d="M33.0367 41.0152V40.4017V1.14478H28.4389V46.8551H42.6736V41.0152H33.52H33.0367Z" fill="white"/>
<path d="M83.9086 31.5427C83.802 31.2142 83.6802 30.8713 83.5432 30.509V30.5041C83.4138 30.1708 83.2577 29.7989 83.0789 29.398V29.3931C82.7135 28.572 82.2758 27.7411 81.7582 26.9055C81.2481 26.0746 80.6468 25.2245 79.9655 24.3598L79.9617 24.3502C79.7752 24.099 79.4631 23.7319 79.033 23.2585C78.5991 22.7706 78.0625 22.1861 77.4268 21.5195C76.8712 20.9447 76.3764 20.3989 75.9501 19.882C75.5238 19.37 75.166 18.8918 74.8768 18.4426C74.1156 17.2929 73.5409 16.1384 73.1602 14.9936C72.7682 13.8198 72.5703 12.6557 72.5703 11.5012C72.5703 10.7718 72.6312 10.0907 72.7492 9.46279C72.871 8.83 73.0499 8.25518 73.2935 7.73832C73.6018 7.07172 73.9862 6.56936 74.4467 6.23123C74.911 5.88827 75.4363 5.7192 76.0376 5.7192C76.5819 5.7192 77.0691 5.8303 77.4992 6.05733V6.0525C77.9445 6.28436 78.3175 6.62732 78.6258 7.09105C79.0178 7.68036 79.3299 8.3856 79.5659 9.19711C79.7447 9.81541 79.8818 10.4965 79.9731 11.2404L84.3881 10.2212C84.312 9.44347 84.194 8.69958 84.0418 7.99434C83.8439 7.13452 83.5889 6.33267 83.2654 5.59361C82.9456 4.84973 82.5765 4.18796 82.1578 3.61797C81.7467 3.05281 81.2786 2.56493 80.761 2.15435C80.0987 1.623 79.3641 1.2269 78.5611 0.961229C77.7542 0.695555 76.8674 0.560303 75.9158 0.560303C74.9263 0.560303 74.0204 0.714877 73.2021 1.02885C72.3914 1.338 71.6607 1.80172 71.006 2.42485C69.9403 3.45856 69.141 4.73863 68.612 6.25538C68.0753 7.79146 67.8051 9.58355 67.8051 11.6365C67.8051 12.7716 67.9041 13.8681 68.102 14.9163H68.0982C68.2961 15.9597 68.5892 16.9693 68.9888 17.9402C69.3618 18.8097 69.8642 19.7419 70.496 20.7274C71.1392 21.7224 71.9119 22.7755 72.8215 23.8961L75.7103 27.3789C76.4982 28.3208 77.1795 29.142 77.7732 29.852L77.796 29.8859C79.2804 31.9291 80.0226 34.0014 80.0226 36.1123C80.0226 36.832 79.9693 37.4696 79.8703 38.0396C79.7676 38.6193 79.6039 39.1216 79.387 39.5467C78.9835 40.3679 78.5078 40.991 77.9559 41.4209C77.4002 41.8557 76.776 42.0875 76.0833 42.1213C75.5733 42.1503 75.0899 42.0392 74.637 41.7784C74.1955 41.5272 73.7844 41.1359 73.4038 40.6094C72.909 39.9331 72.5056 39.0637 72.2011 37.9961C71.9423 37.1025 71.7482 36.0785 71.6226 34.9047L67.257 35.3056C67.3255 36.2958 67.4397 37.2426 67.6034 38.1411C67.8051 39.2182 68.0715 40.2181 68.4065 41.1504C68.7376 42.0634 69.1334 42.8942 69.5825 43.6236C70.0317 44.3433 70.5379 44.9713 71.1012 45.4978H71.105C71.7748 46.1451 72.536 46.6281 73.3848 46.9518C74.245 47.2754 75.2003 47.4445 76.247 47.4445C77.3774 47.4445 78.3631 47.2754 79.1967 46.9421H79.2005C79.9807 46.6378 80.6696 46.2272 81.2672 45.7055C81.8609 45.1935 82.3709 44.5704 82.7896 43.8361L82.7934 43.8313C83.4519 42.7251 83.939 41.5079 84.2587 40.1843C84.5746 38.8463 84.7307 37.3972 84.7079 35.8273C84.7002 35.209 84.6317 34.5472 84.4947 33.8371C84.3577 33.1077 84.1598 32.3494 83.9086 31.5427Z" fill="white"/>
<path d="M101.455 1.14478V20.4617V21.08H100.967H94.2383H93.7549V20.4617V1.14478H89.1534V46.8551H93.7549V27.5866V26.9731H94.2383H100.967H101.455V27.5866V46.8551H106.056V1.14478H101.455Z" fill="white"/>
<path d="M51.7854 1.14478L45.6614 46.8551H50.4951L51.793 36.5615L51.8577 36.0446H52.2687H58.0882H58.5031L58.5678 36.5663L59.8048 46.8551H64.6765L58.6439 1.14478H51.7854ZM57.2509 30.3641H53.1175H52.5618L52.6379 29.6636L54.7046 11.2066L55.1804 6.93646L55.6599 11.2017L57.7304 29.6636L57.8142 30.3641H57.2509Z" fill="white"/>
</svg>
