<svg width="107" height="47" viewBox="0 0 107 47" fill="none" xmlns="http://www.w3.org/2000/svg">
<path d="M0.426111 39.9938L0.264862 39.3849L1.55486 33.9055L1.7161 33.2966L1.87735 33.9055C2.6836 36.3408 3.97359 38.1672 5.10233 38.1672C5.74733 38.1672 6.39233 37.5584 6.71482 36.9496C7.03732 35.732 7.19857 34.5143 7.19857 33.2966C7.19857 30.8613 6.87607 29.0348 5.74733 28.426C5.26358 28.426 4.77984 27.8172 4.13484 27.8172C1.87735 26.5995 0.748609 21.7289 0.748609 15.0318C0.748609 11.3788 1.07111 7.72584 1.87735 5.29056C2.84484 1.63758 3.81234 0.419922 5.26358 0.419922C6.87607 0.419922 8.16606 2.24641 9.2948 5.29056L9.45606 5.89936L8.16606 12.5965L8.00482 11.9876C7.03732 10.1612 6.06982 8.94352 5.10233 8.94352C4.61859 8.94352 4.13484 9.55236 3.81234 10.1612C3.48984 10.77 3.32859 11.9876 3.32859 13.8141C3.32859 15.6406 3.65109 18.0759 4.77984 18.6848C5.10233 18.6848 5.58608 19.2936 6.23108 19.2936C8.64981 20.5112 9.77855 26.5995 9.77855 32.6878C9.77855 36.9496 9.2948 40.6024 8.48856 42.4292C7.68231 44.8644 6.55357 46.082 5.26358 46.082C3.32859 46.082 1.7161 44.2556 0.426111 39.9938Z" fill="white"/>
<path d="M17.8411 13.2053L19.2922 29.0348H16.3898L17.8411 13.2053ZM16.8735 1.02875L12.3585 45.4732H14.7773L15.7448 35.732H19.9373L20.9047 45.4732H23.3235L18.8085 0.419922H16.8735V1.02875Z" fill="white"/>
<path d="M33.8045 1.02832V29.6432L28.6446 1.02832H26.5483V1.63715V45.4728H28.967V16.8578L33.9658 45.4728H36.062V1.02832H33.8045Z" fill="white"/>
<path d="M44.7696 45.4728H40.4158V1.63715V1.02832H44.9308C46.5432 1.02832 47.9945 3.46363 48.8007 8.94308C49.1233 10.7696 49.2845 11.9872 49.4458 14.4225C49.607 16.249 49.607 19.2932 49.607 23.555C49.607 28.4256 49.607 31.4697 49.4458 33.2962C49.2845 35.1227 49.1233 36.9492 48.8007 38.1668C47.9945 42.4288 46.7046 45.4728 44.7696 45.4728ZM44.7696 38.1668C45.737 38.1668 46.382 36.9492 46.8658 34.5139C47.0271 33.2962 47.0271 32.6874 47.1883 31.4697C47.1883 30.2521 47.1883 27.8168 47.1883 23.555C47.1883 19.902 47.1883 17.4667 47.0271 15.6402C47.0271 13.8137 46.8658 13.2049 46.5432 11.9872C46.0595 9.55192 45.5758 8.94308 44.6083 8.94308H42.6733V38.1668H44.7696Z" fill="white"/>
<path d="M72.6658 1.02832L70.0857 32.0786L67.5058 1.02832H65.087L69.1183 45.4728H70.8921L75.0845 1.02832H72.6658Z" fill="white"/>
<path d="M78.7932 1.02832V1.63715V45.4728H81.2119V1.02832H78.7932Z" fill="white"/>
<path d="M84.9205 39.9938L84.7593 39.3849L86.0493 33.9055L86.2106 33.2966L86.3718 33.9055C87.178 36.3408 88.468 38.1672 89.5967 38.1672C90.2418 38.1672 90.8868 37.5584 91.2093 36.9496C91.5317 35.732 91.693 34.5143 91.693 33.2966C91.693 30.8613 91.3705 29.0348 90.2418 28.426C89.758 28.426 89.2743 27.8172 88.6293 27.8172C86.3718 26.5995 85.243 21.7289 85.243 15.0318C85.243 11.3788 85.5656 7.72584 86.3718 5.29056C87.3393 1.63758 88.468 0.419922 89.758 0.419922C91.3705 0.419922 92.6605 2.24641 93.7892 5.29056L93.9505 5.89936L92.6605 12.5965L92.4993 11.9876C91.693 10.1612 90.7255 8.94352 89.5967 8.94352C89.113 8.94352 88.6293 9.55236 88.3068 10.1612C87.9843 10.77 87.8231 12.5965 87.8231 14.423C87.8231 16.2494 88.1456 18.6848 89.2743 19.2936C89.5967 19.2936 90.0806 19.9024 90.5643 19.9024C92.983 21.1201 94.1117 27.2084 94.1117 33.2966C94.1117 37.5584 93.628 41.2116 92.8218 43.038C92.0155 45.4732 90.8868 46.6908 89.5967 46.6908C87.9843 46.082 86.2106 44.2556 84.9205 39.9938Z" fill="white"/>
<path d="M97.3369 1.02832V8.33424H100.562V45.4728H102.981V8.33424H106.205V1.02832H97.3369Z" fill="white"/>
<path d="M62.5069 38.7761H62.6681V46.6908H62.5069C62.0231 46.6908 61.3782 46.6908 60.2494 43.6468C59.6044 44.8644 58.7981 46.082 57.8306 46.082C55.8956 46.082 54.4445 41.8204 53.7994 38.1672C53.6381 36.9496 53.4769 35.732 53.3157 33.9055C53.1544 32.079 53.1544 29.0348 53.1544 23.5554C53.1544 18.0759 53.1544 15.6406 53.3157 13.2053C53.4769 11.3788 53.4769 10.1612 53.7994 8.94352C54.4445 4.68172 55.7344 0.419922 57.8306 0.419922C59.7656 0.419922 61.2169 4.68172 61.8619 8.33468C62.0231 9.55236 62.1844 10.77 62.3456 12.5965C62.5069 14.423 62.5069 17.4671 62.5069 22.9466C62.5069 28.426 62.5069 30.8613 62.3456 33.2966C62.1844 35.1231 62.1844 36.3408 61.8619 37.5584C61.8619 37.5584 61.8619 37.5584 61.8619 38.1672C62.0231 38.7761 62.1844 38.7761 62.5069 38.7761ZM57.8306 38.1672C58.1531 38.1672 58.3144 38.1673 58.4756 37.5584C58.1531 36.3408 57.8306 35.1231 57.5082 33.2966C57.0244 30.8613 56.2181 29.6437 55.5731 29.0348C55.5731 32.6878 55.7344 33.2966 56.0569 35.1231C56.3794 36.3408 57.0244 37.5584 57.8306 38.1672ZM57.8306 8.94352C57.0244 8.94352 56.5406 10.1612 56.2181 11.9876C56.0569 13.2053 55.8956 13.8142 55.7344 15.0318C55.5731 16.2494 55.5731 18.0759 55.5731 21.7289C56.7019 21.7289 58.3144 23.5554 59.2819 28.426C59.4432 29.6437 59.7656 30.8613 59.9269 31.4702C59.9269 29.6437 60.0881 27.2084 60.0881 22.9466C60.0881 18.6848 60.0881 16.2494 59.9269 14.423C59.7656 12.5965 59.7656 11.9876 59.4432 11.3788C59.1207 10.1612 58.6368 8.94352 57.8306 8.94352Z" fill="white"/>
</svg>
