<svg width="107" height="46" viewBox="0 0 107 46" fill="none" xmlns="http://www.w3.org/2000/svg">
<path d="M6.98128 5.1833C4.38247 12.3729 4.25252 22.3583 2.95312 31.5451C2.43336 20.7607 1.78365 10.7752 1.26389 0.390259C1.00401 0.390259 0.874074 0.390259 0.744129 0.390259C0.61419 0.78968 0.48425 0.78968 0.354309 1.18909C1.13395 14.37 1.78365 27.1516 2.5633 40.7318C4.77229 31.1456 4.64234 19.5624 6.7214 9.97637C7.63095 18.7636 7.63095 27.9503 7.76091 36.3381C8.02082 36.3381 8.15071 36.3381 8.28067 36.3381C8.41063 36.3381 8.41063 36.3381 8.67048 35.9386C8.54059 27.1516 8.54059 17.5653 7.63095 8.77809C7.50106 7.57984 7.24114 6.78098 6.98128 5.1833Z" fill="white"/>
<path d="M34.9184 17.9648C34.1388 17.9648 33.619 19.1631 33.2292 21.5596C33.0993 22.3585 32.9693 23.5568 32.8393 24.3556C32.3196 25.1543 31.41 22.7578 31.54 26.7521C31.9298 27.1516 32.3196 27.5508 32.5795 27.5508C32.5795 32.3441 32.5795 36.7376 32.5795 40.7319C34.5286 43.5279 35.828 40.7319 37.2574 37.1371C37.1274 36.3381 36.9975 35.5393 36.7376 34.7406C36.3477 35.5393 36.2178 35.9388 35.828 36.7376C35.3082 37.5364 34.6586 38.7346 34.1388 39.1341C33.749 39.5336 33.3591 39.1341 33.3591 37.5364C33.3591 34.3411 33.4891 31.5451 33.4891 28.3498C35.6981 28.3498 37.7771 30.3468 39.8561 28.7493C39.4663 21.5596 37.5172 17.5654 34.9184 17.9648ZM33.8789 25.1543C34.0088 21.1603 34.2687 20.3614 35.3082 20.7608C36.6077 21.1603 37.7771 22.3586 38.6867 26.3526C37.1274 25.9533 35.4382 25.5538 33.8789 25.1543Z" fill="white"/>
<path d="M71.9515 28.3496C71.0416 28.3496 70.1323 27.9501 69.2227 27.9501C68.703 27.9501 68.4431 27.1513 68.3132 25.9531C67.7934 21.5593 67.2736 17.1657 66.7539 12.3727C66.2341 17.1657 65.5844 21.5593 65.0646 25.9531C64.6748 25.9531 64.415 25.5536 64.0251 25.5536C64.0251 26.3524 63.8952 27.1513 63.8952 27.9501C64.285 27.9501 64.5449 28.3496 64.8048 28.3496C64.6748 31.9444 64.5449 35.5391 64.285 39.5334C64.6748 39.5334 64.9347 39.5334 65.1946 39.5334C65.3245 35.9386 65.5844 32.7431 65.7143 29.1484C67.1437 29.1484 68.0533 29.9471 68.573 34.3409C68.9629 37.5361 69.4826 40.3321 70.0024 43.5274C70.2623 43.1281 70.5221 42.7286 70.782 41.9299C70.1323 37.9356 69.6125 34.3409 68.9629 30.3466C70.0024 30.3466 70.9119 30.3466 71.9515 30.3466C72.0811 29.9471 71.9515 29.1484 71.9515 28.3496ZM66.1042 26.3524C66.2341 24.3553 66.494 22.7576 66.6239 20.3611C66.8838 22.7576 67.1437 24.7548 67.4036 27.1513C67.0137 26.7518 66.6239 26.7518 66.1042 26.3524Z" fill="white"/>
<path d="M21.0149 4.38458C20.8849 4.78401 20.8849 4.78401 20.7549 5.18343C21.9244 9.57705 22.5742 15.1689 22.964 20.3614C22.3142 20.3614 21.6645 19.5626 21.1448 19.5626C20.1053 19.962 19.3256 21.1603 18.9358 24.3556C18.546 27.551 18.8058 30.7463 19.5855 33.5423C20.7549 37.5366 22.3142 38.7348 24.0035 37.9358C24.2633 25.5538 24.1335 13.9707 21.4047 3.58575C21.2747 3.98516 21.1448 4.38458 21.0149 4.38458ZM23.0939 28.7493C22.964 30.7463 23.0939 32.7435 23.0939 35.1401C21.4047 35.5393 19.9753 32.3441 19.7154 27.9503C19.5855 25.9533 19.8454 23.9563 20.4951 23.1573C21.1448 22.3585 21.6645 21.959 22.3142 23.1573C22.964 24.755 23.2238 26.3528 23.0939 28.7493Z" fill="white"/>
<path d="M52.7203 5.98233C52.7203 5.18351 52.3305 4.78408 52.0706 3.98523C52.0706 4.38465 51.9406 4.38466 51.8107 4.78408C51.9406 7.58002 51.9406 10.7754 52.0706 13.5713C52.3305 18.7638 52.5903 24.3558 52.7203 29.5483C52.8502 31.9448 52.4604 34.3413 51.9406 35.9388C49.6017 42.3296 46.3532 39.9331 45.0538 31.5453L44.9238 31.1458C44.664 31.5453 44.534 31.5453 44.2742 31.9448C44.2742 32.344 44.2742 32.7435 44.2742 32.7435C45.1837 40.732 47.3927 43.5278 50.3813 41.5308C53.1101 39.5336 54.1496 35.14 53.7598 26.7523C53.3699 19.5626 53.1101 12.7725 52.7203 5.98233Z" fill="white"/>
<path d="M57.1382 29.1488C56.2287 27.551 56.2287 24.755 56.6185 22.758C56.7484 23.1575 56.7484 24.3557 56.8784 24.3557C58.1778 25.1545 59.4772 25.554 60.9065 26.3528C60.9065 22.758 60.9065 19.962 60.9065 16.7667C59.6071 17.1661 58.3077 17.1661 57.1382 17.9649C55.1891 19.5626 54.6694 25.9533 56.0987 30.347C56.4886 31.5453 57.1382 32.7435 57.7879 33.5423C59.0873 34.3413 60.3868 35.14 61.6861 35.5395C61.6861 35.5395 61.8161 35.5395 61.9461 35.14C61.9461 34.3411 61.9461 33.5423 61.9461 32.7435C61.0365 32.344 60.2568 32.344 59.4772 31.5453C58.6975 31.5453 57.9179 30.7463 57.1382 29.1488ZM59.997 19.5626C59.997 21.1603 59.997 21.959 59.997 23.5568C58.9574 23.1575 58.0478 22.3585 57.1382 21.959C57.1382 21.5597 57.1382 21.1603 57.1382 20.7609C58.0478 20.3614 58.9574 19.962 59.997 19.5626Z" fill="white"/>
<path d="M79.2282 21.5596C77.1491 22.3585 77.0194 28.3498 76.1096 32.7433C75.8495 27.1516 75.7198 21.5596 73.7705 18.7637C73.6408 19.9619 73.5111 20.3614 73.5111 21.1603C74.81 23.1573 74.9404 27.1516 75.0701 30.7463C75.1997 34.7406 75.4598 39.1341 75.5895 43.1284C75.7198 43.1284 75.7198 43.1284 75.8495 43.1284C76.629 37.1371 77.2788 30.7463 78.4487 25.1543C78.5784 25.1543 78.708 25.1543 78.708 25.1543C79.0985 30.3468 79.4882 35.5393 80.0076 41.1311C80.2677 40.7319 80.5278 40.7319 80.9175 40.3324C80.5278 35.1399 80.0076 29.9473 79.6179 24.7551C79.6179 23.9561 79.3578 22.7578 79.2282 21.5596Z" fill="white"/>
<path d="M81.8274 26.7518C83.3863 27.9501 84.946 28.7488 86.6346 29.9471C86.2449 32.3436 85.8551 34.3408 85.3357 36.3378C84.5555 38.7344 83.6464 40.7316 82.7365 43.1281C82.7365 43.1281 82.7365 43.5274 82.6069 43.9269C82.8669 44.3264 82.9966 44.7256 83.1263 45.1251C83.9065 43.1281 84.4259 40.7316 85.2053 39.5333C87.025 36.7373 87.1547 31.1453 88.0646 26.7518C86.3752 26.3523 84.946 25.9528 83.516 25.5536C83.516 25.1541 83.516 24.7546 83.516 24.7546C84.8156 21.1598 86.5049 21.5593 88.1942 21.9588C88.1942 21.1598 88.1942 20.3611 88.1942 19.5622C85.5951 17.1657 83.1263 19.9616 81.8274 26.7518Z" fill="white"/>
<path d="M106.646 28.7493C106.646 27.9505 106.646 26.3528 106.516 24.7551C106.126 22.3585 105.866 19.5627 105.216 17.965C104.177 15.169 102.748 16.3673 101.708 20.7609C100.669 24.7551 100.798 29.9476 102.098 32.7436C102.877 34.3413 103.787 35.1401 104.567 35.9388C105.866 37.1371 106.386 35.5396 106.516 31.1458C106.646 30.7465 106.646 29.9476 106.646 28.7493ZM105.736 31.1458C105.736 32.7436 105.477 33.9418 104.827 33.1431C104.307 32.7436 103.657 32.3441 103.137 31.5453C102.358 30.3471 101.968 28.35 102.098 25.554C102.228 22.758 103.008 20.3615 103.787 19.9621C104.567 19.5627 105.087 20.7609 105.346 22.758C105.606 24.7551 105.606 26.7523 105.866 28.7493C105.866 28.7493 105.866 28.7493 105.736 28.7493C105.736 29.5483 105.736 30.3471 105.736 31.1458Z" fill="white"/>
<path d="M15.6874 27.5506C15.4275 29.9473 15.1676 32.3438 14.7778 34.3409C13.9982 37.9356 12.4389 37.5361 11.7892 33.5421C11.6592 31.9444 11.5293 30.3466 11.3993 29.1484C11.2694 26.3524 11.1394 23.5566 11.0095 20.7605C10.8796 20.7605 10.8796 20.3611 10.7496 20.3611C10.6197 21.1601 10.2299 21.9588 10.2299 22.3583C10.3598 26.3524 10.6197 30.3466 11.0095 33.9414C11.2694 37.1369 11.9191 39.1339 13.0886 39.5334C14.258 39.9329 15.2975 38.7344 15.6874 35.1396C16.3371 31.1456 16.7269 27.1513 17.1168 22.7576C16.7269 22.3583 16.467 21.9588 16.0772 21.9588C16.0772 24.3553 15.9473 25.9531 15.6874 27.5506Z" fill="white"/>
<path d="M97.1603 34.7406C96.5105 33.9418 95.6006 33.1431 95.0812 31.9448C93.9113 29.1488 94.1713 25.554 95.4709 23.5568C95.8607 22.758 96.3801 22.3586 96.9002 21.9593C96.7698 21.1603 96.6401 20.3615 96.5105 19.5627C95.9904 19.9621 95.6006 20.3615 95.2109 21.1603C93.1318 23.9563 92.7421 31.1458 94.6908 35.1401C95.6006 37.1371 96.7698 37.5366 97.9397 38.3354C98.0694 38.3354 98.0694 38.3354 98.1998 37.9361C98.1998 37.1371 98.1998 36.3383 98.1998 35.5396C97.8093 35.1401 97.4196 35.1401 97.1603 34.7406Z" fill="white"/>
<path d="M27.1222 22.3585C26.6024 21.959 26.3425 21.959 26.2126 23.9563C25.9527 31.9446 28.0317 39.5336 30.6306 40.7318C30.7605 39.9331 30.7605 39.1343 30.8904 38.7348C27.6419 33.5423 27.382 32.7436 27.1222 22.3585Z" fill="white"/>
<path d="M26.6023 7.57971C26.3424 7.57971 26.0825 7.57971 25.8226 7.57971C25.8226 9.57682 25.8226 11.5739 25.8226 13.571C26.0825 13.571 26.3424 13.571 26.6023 13.571C26.6023 11.5739 26.6023 9.57682 26.6023 7.57971Z" fill="white"/>
</svg>
