<svg width="107" height="48" viewBox="0 0 107 48" fill="none" xmlns="http://www.w3.org/2000/svg">
<path d="M0.341573 47.5827C0.250982 47.5827 0.1641 47.4569 0.100042 47.233C0.035984 47.009 -3.43361e-06 46.7052 -3.43361e-06 46.3885V1.61151C-0.0017374 1.45305 0.00591158 1.29505 0.0224638 1.14742C0.0390161 0.999782 0.0641146 0.865696 0.0961853 0.753568C0.128256 0.64144 0.166607 0.553689 0.208834 0.495818C0.251061 0.437947 0.296252 0.411204 0.341573 0.417266H15.1137C15.1591 0.411204 15.2043 0.437947 15.2465 0.495818C15.2887 0.553689 15.3271 0.64144 15.3591 0.753568C15.3912 0.865696 15.4163 0.999782 15.4329 1.14742C15.4494 1.29505 15.4571 1.45305 15.4553 1.61151V9.19424C15.4556 9.35134 15.4469 9.50707 15.4299 9.65239C15.4128 9.79771 15.3877 9.92975 15.3559 10.0408C15.3241 10.1519 15.2863 10.2399 15.2448 10.2995C15.2032 10.3592 15.1587 10.3894 15.1137 10.3885H4.20798C4.14021 10.3622 4.07163 10.3896 4.0073 10.4685C3.94297 10.5474 3.88453 10.6759 3.83633 10.8445C3.78812 11.013 3.75136 11.2173 3.72879 11.4423C3.70621 11.6672 3.69839 11.907 3.7059 12.1439V16.9856C3.69839 17.2225 3.70621 17.4623 3.72879 17.6872C3.75136 17.9122 3.78812 18.1165 3.83633 18.285C3.88453 18.4536 3.94297 18.5821 4.0073 18.661C4.07163 18.7399 4.14021 18.7673 4.20798 18.741H14.552C14.6418 18.7501 14.7272 18.8788 14.7907 19.1008C14.8542 19.3229 14.891 19.6214 14.8936 19.9353V27.1295C14.891 27.4427 14.8541 27.7404 14.7905 27.9613C14.727 28.1821 14.6416 28.3093 14.552 28.3165H4.21621C4.14853 28.2917 4.08011 28.32 4.01596 28.3994C3.95181 28.4788 3.89354 28.6073 3.84542 28.7756C3.7973 28.9438 3.76054 29.1475 3.73782 29.3718C3.71511 29.5961 3.70701 29.8353 3.71413 30.0719V35.6907C3.70701 35.9273 3.71511 36.1665 3.73782 36.3908C3.76054 36.6151 3.7973 36.8188 3.84542 36.987C3.89354 37.1553 3.95181 37.2838 4.01596 37.3632C4.08011 37.4426 4.14853 37.4709 4.21621 37.446H15.194C15.2392 37.439 15.2844 37.4648 15.3266 37.5218C15.3688 37.5789 15.4072 37.6659 15.4393 37.7775C15.4714 37.8891 15.4965 38.0227 15.5131 38.17C15.5297 38.3173 15.5373 38.475 15.5356 38.6331V46.3957C15.5358 46.5528 15.5272 46.7085 15.5101 46.8538C15.4931 46.9992 15.4679 47.1312 15.4361 47.2423C15.4044 47.3534 15.3666 47.4413 15.325 47.501C15.2835 47.5606 15.2389 47.5909 15.194 47.5899H0.341573V47.5827ZM28.7213 47.5827C28.6315 47.5737 28.5461 47.445 28.4826 47.2229C28.4191 47.0009 28.3823 46.7024 28.3797 46.3885V31.9281C28.3838 31.1529 28.3045 30.4006 28.1575 29.8201L21.3156 2.15827C21.2748 2.00595 21.2482 1.81411 21.2391 1.60788C21.23 1.40165 21.239 1.19064 21.2647 1.00248C21.2905 0.814326 21.332 0.657788 21.3837 0.553366C21.4353 0.448945 21.4948 0.401508 21.5543 0.417266H25.3672C25.4646 0.392182 25.5622 0.456679 25.6503 0.604346C25.7384 0.752012 25.8139 0.977706 25.8693 1.25899L29.9847 19.1583C30.0203 19.3513 30.0692 19.51 30.1269 19.62C30.1846 19.7299 30.2492 19.7875 30.3149 19.7875C30.3807 19.7875 30.4453 19.7299 30.503 19.62C30.5607 19.51 30.6096 19.3513 30.6452 19.1583L34.7606 1.26619C34.8158 0.984372 34.8913 0.758274 34.9794 0.610545C35.0676 0.462816 35.1652 0.398645 35.2627 0.42446H39.0756C39.1349 0.408648 39.1941 0.455557 39.2457 0.559089C39.2972 0.662621 39.3387 0.817987 39.3647 1.00499C39.3906 1.19199 39.3999 1.40198 39.3913 1.60766C39.3827 1.81334 39.3565 2.00519 39.3163 2.15827L32.4724 29.8273C32.3962 30.1068 32.3373 30.4383 32.2995 30.801C32.2616 31.1637 32.2455 31.5498 32.2523 31.9353V46.3957C32.2525 46.5528 32.2439 46.7085 32.2268 46.8538C32.2098 46.9992 32.1846 47.1312 32.1528 47.2423C32.1211 47.3534 32.0833 47.4413 32.0417 47.501C32.0002 47.5606 31.9556 47.5909 31.9107 47.5899H28.7213V47.5827ZM51.7674 47.5827C51.6775 47.5754 51.5918 47.4473 51.5282 47.2248C51.4646 47.0025 51.4279 46.7029 51.4258 46.3885V12.5755C51.4258 11.5252 51.3044 11.0288 51.0143 11.0288H45.475C45.4296 11.0359 45.3843 11.0099 45.3419 10.9525C45.2995 10.895 45.2611 10.8073 45.2289 10.6949C45.1968 10.5825 45.1717 10.448 45.1553 10.2999C45.1388 10.1518 45.1314 9.99327 45.1334 9.83453V1.61151C45.1317 1.45305 45.1393 1.29505 45.1559 1.14742C45.1724 0.999782 45.1975 0.865696 45.2296 0.753568C45.2617 0.64144 45.3 0.553689 45.3423 0.495818C45.3845 0.437947 45.4297 0.411204 45.475 0.417266H61.2328C61.2777 0.416311 61.3223 0.446549 61.3638 0.506227C61.4054 0.565906 61.4432 0.653837 61.4749 0.764923C61.5067 0.87601 61.5319 1.00804 61.5489 1.15337C61.566 1.29869 61.5746 1.45441 61.5744 1.61151V9.82014C61.5749 9.97751 61.5665 10.1337 61.5495 10.2794C61.5325 10.4252 61.5074 10.5576 61.4756 10.6689C61.4437 10.7802 61.4059 10.8681 61.3642 10.9274C61.3225 10.9867 61.2778 11.0163 61.2328 11.0144H55.7182C55.4178 11.0144 55.3066 11.5108 55.3066 12.5612V46.3741C55.3041 46.688 55.2672 46.9865 55.2037 47.2085C55.1402 47.4306 55.0548 47.5593 54.9651 47.5683L51.7674 47.5827ZM74.8136 47.5827C74.7238 47.5737 74.6384 47.445 74.5749 47.2229C74.5114 47.0009 74.4746 46.7024 74.472 46.3885V31.9281C74.4759 31.1543 74.3974 30.4031 74.2518 29.8201L67.3997 2.15827C67.3589 2.00595 67.3322 1.81411 67.3232 1.60788C67.3141 1.40165 67.323 1.19064 67.3488 1.00248C67.3746 0.814326 67.4161 0.657788 67.4677 0.553366C67.5194 0.448945 67.5789 0.401508 67.6384 0.417266H71.4513C71.5487 0.392182 71.6463 0.456679 71.7344 0.604346C71.8225 0.752012 71.898 0.977706 71.9534 1.25899L76.0688 19.1583C76.1044 19.3513 76.1533 19.51 76.211 19.62C76.2687 19.7299 76.3333 19.7875 76.399 19.7875C76.4647 19.7875 76.5294 19.7299 76.5871 19.62C76.6448 19.51 76.6937 19.3513 76.7293 19.1583L80.8447 1.26619C80.8999 0.984372 80.9754 0.758274 81.0635 0.610545C81.1516 0.462816 81.2493 0.398645 81.3467 0.42446H85.1596C85.2184 0.413369 85.2768 0.463701 85.3273 0.569041C85.3779 0.674381 85.4183 0.829957 85.4435 1.01594C85.4686 1.20193 85.4774 1.40989 85.4686 1.61334C85.4598 1.81678 85.4339 2.00649 85.3942 2.15827L78.5565 29.8273C78.4803 30.1068 78.4214 30.4383 78.3835 30.801C78.3456 31.1637 78.3296 31.5498 78.3363 31.9353V46.3957C78.3366 46.5552 78.3277 46.7134 78.3102 46.8606C78.2926 47.0079 78.2667 47.1412 78.234 47.2527C78.2014 47.3642 78.1626 47.4515 78.1201 47.5095C78.0776 47.5674 78.0322 47.5948 77.9865 47.5899H74.7971L74.8136 47.5827ZM91.7257 45.3237C90.8636 43.4317 90.5817 40.6906 90.5817 34.3741C90.5808 34.2045 90.5898 34.0361 90.608 33.8789C90.6263 33.7217 90.6534 33.5791 90.6878 33.4595C90.7222 33.3399 90.7632 33.2458 90.8082 33.1829C90.8533 33.12 90.9015 33.0896 90.95 33.0935H93.7999C93.8886 33.0964 93.974 33.2117 94.0403 33.4181C94.1065 33.6246 94.149 33.908 94.16 34.2158C94.1991 35.7626 94.3205 36.741 94.6826 37.518C95.1436 38.5683 95.6271 38.7122 98.6581 38.7122C103.274 38.7122 103.455 38.5683 103.455 33.446C103.455 29.5899 102.852 28.964 101.547 28.7482L94.8431 27.8345C91.5508 27.4101 90.7072 24.8201 90.7072 14.7122C90.699 5.97122 91.3615 2.15827 93.1476 0.841727C93.9542 0.280576 95.9193 0 99.1314 0C103.125 0 104.533 0.633094 105.455 2.80576C106.197 4.56115 106.498 7.44604 106.498 12.8777C106.498 13.0433 106.489 13.2074 106.471 13.3606C106.453 13.5138 106.427 13.653 106.393 13.7701C106.36 13.8872 106.32 13.9799 106.276 14.0428C106.232 14.1057 106.185 14.1376 106.138 14.1367H103.267C103.181 14.1486 103.096 14.0478 103.029 13.8537C102.963 13.6597 102.919 13.3862 102.907 13.0863C102.827 11.7554 102.747 10.9281 102.424 10.2086C102.002 9.29496 101.341 9.22302 98.3906 9.22302C94.9172 9.22302 94.2546 9.36691 94.2546 14.0647C94.2546 16.223 94.5345 17.6619 95.0777 18.0647C95.479 18.4892 96.5634 18.705 99.5944 18.9784C104.111 19.4748 104.994 19.8921 105.815 21.6475C106.677 23.6547 107 26.6187 107 33.0935C107 41.0935 106.477 44.8849 105.148 46.6403C104.366 47.6907 102.64 48.036 98.5223 48.036C94.2958 48 92.6291 47.3669 91.7257 45.3237Z" fill="white"/>
</svg>
