<svg width="107" height="48" viewBox="0 0 107 48" fill="none" xmlns="http://www.w3.org/2000/svg">
<path d="M74.7411 13.3085V14.8455L75.2512 15.1253C77.1909 16.1952 77.1909 16.1952 77.1909 18.8946V25.1782L77.1404 30.0647C77.1058 33.5327 77.1058 33.5327 75.4558 33.974L74.9457 34.1139V35.6508H81.4809V34.1139L80.9708 33.974C79.0138 33.438 78.9115 33.438 78.8769 30.0647L78.8265 25.1782V18.8946L89.2424 35.6508H90.7746V23.7811L90.8246 18.8946C90.8597 15.3814 90.8597 15.3814 92.3059 14.9853L92.8164 14.8455V13.3085H86.6889V14.8455L87.199 14.9853C88.953 15.4741 89.0538 15.4741 89.088 18.8946L89.1389 23.7811V30.0647L78.7227 13.3085H74.7411Z" fill="white"/>
<path d="M62.0109 12.96C57.2454 12.96 53.5 17.7776 53.5 24.6897C53.5 31.4621 57.1084 35.9998 61.7386 35.9998C66.5042 35.9998 70.2495 31.1822 70.2495 24.2701C70.2495 17.4979 66.6411 12.96 62.0109 12.96ZM61.9605 33.9053C58.6417 33.9053 56.4628 30.1123 56.4628 24.3411C56.4628 18.615 58.5899 15.0545 61.7904 15.0545C65.1092 15.0545 67.2881 18.8475 67.2881 24.6189C67.2867 30.3448 65.1597 33.9053 61.9605 33.9053Z" fill="white"/>
<path d="M34.6089 13.3085L34.0987 20.2897H35.3236L35.5786 19.3813C36.7358 15.2613 36.7358 15.2613 38.8975 15.2613H40.6844V31.18C40.6844 33.3435 40.6844 33.3435 38.3873 33.972L37.8772 34.112V35.6488H46.0466V34.112L45.5364 33.972C43.2394 33.3435 43.2394 33.3435 43.2394 31.18V15.2632H45.0263C47.2902 15.2632 47.2902 15.2632 48.2427 19.5921L48.3955 20.2897H49.6204V13.3085H34.6089Z" fill="white"/>
<path d="M14.4905 13.3085V14.8455L15.0006 14.9853C16.6348 15.4267 16.6348 15.4267 16.6348 17.4995V31.4618C16.6348 33.44 16.6348 33.44 14.6951 33.976L14.1835 34.1139V35.6508H28.378L28.8881 28.6698H27.6632L27.4081 29.5072C26.1832 33.5563 26.1832 33.5563 24.0894 33.5563H20.6178C19.086 33.5563 19.086 33.5563 19.086 31.4618V25.0383H20.5156C22.5416 25.0383 22.5416 25.0383 22.8645 27.2727L22.9667 27.9702H24.0908V20.2897H22.9667L22.8645 20.9872C22.5575 23.0817 22.5575 23.0817 20.5156 23.0817H19.086V15.2632H23.5793C25.9959 15.2632 25.9959 15.2632 26.7957 18.8946L26.9485 19.5921H28.1733V13.3085H14.4905Z" fill="white"/>
</svg>
