<svg width="20" height="20" viewBox="0 0 20 20" fill="none" xmlns="http://www.w3.org/2000/svg">
<path d="M0 1.47541C0 0.655739 0.655701 0 1.4754 0H18.5246C19.3443 0 20 0.655739 20 1.47541V18.6885C20 19.5082 19.3443 20.1639 18.5246 20.1639H1.4754C0.655701 20.1639 0 19.5082 0 18.6885V1.47541Z" fill="white"/>
<path fill-rule="evenodd" clip-rule="evenodd" d="M6.066 16.885V7.70462H3.1151V16.885H6.066ZM4.5905 6.55702C5.5742 6.55702 6.2299 5.90128 6.2299 4.91772C6.2299 4.09804 5.5742 3.27832 4.5905 3.27832C3.6069 3.27832 2.9512 3.93406 2.9512 4.91772C2.9512 5.90132 3.6069 6.55702 4.5905 6.55702Z" fill="black"/>
<path fill-rule="evenodd" clip-rule="evenodd" d="M7.705 16.8848H10.6558V11.8028C10.6558 11.4749 10.6558 11.311 10.8198 10.9831C10.9837 10.4913 11.4755 9.83563 12.2952 9.83563C13.4427 9.83563 13.7706 10.6553 13.7706 11.9667V16.8848H16.7214V11.6389C16.7214 8.85203 15.246 7.54053 13.2788 7.54053C11.6394 7.54053 10.9837 8.52413 10.4919 9.01593V7.70443H7.705C7.8689 8.68804 7.705 16.8848 7.705 16.8848Z" fill="black"/>
</svg>
