<svg width="20" height="20" viewBox="0 0 20 20" fill="none" xmlns="http://www.w3.org/2000/svg">
<path d="M10.0812 1.78861H14.1462C15.1219 1.78861 15.6097 1.95121 15.9349 2.11381C16.4227 2.27641 16.7479 2.43901 17.0731 2.92682C17.3983 3.25202 17.5609 3.57723 17.8861 4.06502C18.0487 4.39022 18.2113 4.87803 18.2113 5.85362V13.9836C18.2113 14.9593 18.0487 15.4471 17.8861 15.7723C17.7235 16.2601 17.5609 16.5853 17.0731 16.9105C16.7479 17.2357 16.4227 17.3983 15.9349 17.7235C15.6097 17.8861 15.1219 18.0487 14.1462 18.0487H6.0162C5.04059 18.0487 4.5528 17.8861 4.2276 17.7235C3.7398 17.5609 3.41459 17.3983 3.0894 16.9105C2.7642 16.5853 2.6016 16.2601 2.27639 15.7723C2.11379 15.6097 1.95119 14.9593 1.78859 13.9836V5.85362C1.78859 4.87801 1.95119 4.39022 2.11379 4.06502C2.43899 3.57722 2.6016 3.25201 2.9268 2.92682C3.252 2.60163 3.57721 2.43901 4.065 2.27641C4.3902 2.11381 4.87801 1.95121 5.8536 1.95121C6.9918 1.78861 7.317 1.78861 10.0812 1.78861ZM5.8536 1e-05C4.87799 0.16261 4.065 0.32521 3.4146 0.48781C2.7642 0.81301 2.2764 1.13821 1.626 1.62601C1.13819 2.27641 0.81299 2.76421 0.4878 3.41461C0.3252 4.06502 0.1626 4.87801 0 5.85361V14.1462C0 15.2845 0.1626 15.9349 0.4878 16.5853C0.813 17.2357 1.1382 17.7235 1.626 18.3739C2.1138 18.8617 2.7642 19.3495 3.4146 19.5121C4.06501 19.8373 4.7154 19.9999 5.8536 19.9999H13.9836C15.1219 19.9999 15.7723 19.8373 16.4227 19.5121C17.0731 19.1869 17.5609 18.8617 18.2113 18.3739C18.6991 17.8861 19.1869 17.2357 19.3495 16.5853C19.6747 15.9349 19.8373 15.2845 19.8373 14.1462V6.01621C19.8373 4.87801 19.6747 4.22761 19.3495 3.57721C19.0243 2.9268 18.6991 2.43901 18.2113 1.78861C17.7235 1.3008 17.0731 0.813 16.4227 0.65041C15.9349 0.3252 15.1219 0.1626 14.1462 0L5.8536 1e-05Z" fill="white"/>
<path d="M10.081 4.87793C7.1542 4.87793 4.8778 7.15433 4.8778 10.0812C4.8778 12.8454 7.1542 15.2844 10.081 15.2844C13.0078 15.2844 15.2843 13.008 15.2843 10.0812C15.1217 7.15443 12.8452 4.87793 10.081 4.87793ZM10.081 13.3332C8.1298 13.3332 6.6664 11.8698 6.6664 10.0812C6.6664 8.13003 8.1298 6.66663 10.081 6.66663C12.0322 6.66663 13.333 8.13003 13.333 10.0812C13.333 11.8698 11.8696 13.3332 10.081 13.3332Z" fill="white"/>
<path d="M15.285 5.85355C15.9136 5.85355 16.4232 5.34396 16.4232 4.71535C16.4232 4.08674 15.9136 3.57715 15.285 3.57715C14.6564 3.57715 14.1468 4.08674 14.1468 4.71535C14.1468 5.34396 14.6564 5.85355 15.285 5.85355Z" fill="white"/>
</svg>
