<svg width="20" height="20" viewBox="0 0 20 20" fill="none" xmlns="http://www.w3.org/2000/svg">
<g clip-path="url(#clip0_1_432)">
<path d="M15.2461 0H4.7539C2.12839 0 0 2.12839 0 4.7539V15.2461C0 17.8716 2.12839 19.9999 4.7539 19.9999H15.2461C17.8716 19.9999 19.9999 17.8716 19.9999 15.2461V4.7539C19.9999 2.12839 17.8716 0 15.2461 0Z" fill="white"/>
<path d="M16.0427 5.98563C12.3046 5.62849 12.376 2.34277 12.376 2.34277H9.96575V12.7191C9.90494 13.8288 8.98738 14.6975 7.876 14.6975C6.72019 14.6975 5.78317 13.7605 5.78317 12.6047C5.78317 11.4488 6.72019 10.5118 7.876 10.5118C8.11994 10.5118 8.362 10.5545 8.59125 10.6379L8.61488 7.89825C8.35975 7.855 8.10144 7.83325 7.84269 7.83325C5.29165 7.83325 3.22363 9.90125 3.22363 12.4523C3.22363 15.0033 5.29165 17.0713 7.84269 17.0713C10.3066 17.0713 12.3368 15.1374 12.4563 12.6764V7.27132C12.4563 7.27132 13.7808 8.41419 16.0427 8.46182V5.98563Z" fill="black"/>
</g>
<defs>
<clipPath id="clip0_1_432">
<rect width="20" height="20" fill="white"/>
</clipPath>
</defs>
</svg>
